<?xml version="1.0" encoding="UTF-8" standalone="no"?>
<svg
  xmlns="http://www.w3.org/2000/svg"
  version="1.1"
  width="210mm"
  height="297mm"
  viewBox="0 0 210 297">
<g stroke="#000000" fill="none"
   stroke-width="0.5566"
   stroke-linecap="round" stroke-linejoin="round">
<path d="M 185.6243,114.7500 L 158.3445,162.0000" />
<path d="M 158.3445,162.0000 L 131.0647,114.7500" />
<path d="M 131.0647,114.7500 L 158.3445,67.5000" />
<path d="M 158.3445,67.5000 L 185.6243,114.7500" />
<path d="M 195.8487,114.7500 L 168.5689,162.0000" />
<path d="M 168.5689,162.0000 L 141.2892,114.7500" />
<path d="M 141.2892,114.7500 L 168.5689,67.5000" />
<path d="M 168.5689,67.5000 L 195.8487,114.7500" />
<path d="M 185.6243,114.7500 L 195.8487,114.7500" />
<path d="M 158.3445,162.0000 L 168.5689,162.0000" />
<path d="M 131.0647,114.7500 L 141.2892,114.7500" />
<path d="M 158.3445,67.5000 L 168.5689,67.5000" />
<path d="M 146.6531,182.2500 L 119.3733,229.5000" />
<path d="M 119.3733,229.5000 L 92.0935,182.2500" />
<path d="M 92.0935,182.2500 L 119.3733,135.0000" />
<path d="M 119.3733,135.0000 L 146.6531,182.2500" />
<path d="M 156.8776,182.2500 L 129.5978,229.5000" />
<path d="M 129.5978,229.5000 L 102.3180,182.2500" />
<path d="M 102.3180,182.2500 L 129.5978,135.0000" />
<path d="M 129.5978,135.0000 L 156.8776,182.2500" />
<path d="M 146.6531,182.2500 L 156.8776,182.2500" />
<path d="M 119.3733,229.5000 L 129.5978,229.5000" />
<path d="M 92.0935,182.2500 L 102.3180,182.2500" />
<path d="M 119.3733,135.0000 L 129.5978,135.0000" />
<path d="M 107.6820,249.7500 L 80.4022,297.0000" />
<path d="M 80.4022,297.0000 L 53.1224,249.7500" />
<path d="M 53.1224,249.7500 L 80.4022,202.5000" />
<path d="M 80.4022,202.5000 L 107.6820,249.7500" />
<path d="M 117.9065,249.7500 L 90.6267,297.0000" />
<path d="M 90.6267,297.0000 L 63.3469,249.7500" />
<path d="M 63.3469,249.7500 L 90.6267,202.5000" />
<path d="M 90.6267,202.5000 L 117.9065,249.7500" />
<path d="M 107.6820,249.7500 L 117.9065,249.7500" />
<path d="M 80.4022,297.0000 L 90.6267,297.0000" />
<path d="M 53.1224,249.7500 L 63.3469,249.7500" />
<path d="M 80.4022,202.5000 L 90.6267,202.5000" />
<path d="M 146.6531,47.2500 L 119.3733,94.5000" />
<path d="M 119.3733,94.5000 L 92.0935,47.2500" />
<path d="M 92.0935,47.2500 L 119.3733,0.0000" />
<path d="M 119.3733,0.0000 L 146.6531,47.2500" />
<path d="M 156.8776,47.2500 L 129.5978,94.5000" />
<path d="M 129.5978,94.5000 L 102.3180,47.2500" />
<path d="M 102.3180,47.2500 L 129.5978,0.0000" />
<path d="M 129.5978,0.0000 L 156.8776,47.2500" />
<path d="M 146.6531,47.2500 L 156.8776,47.2500" />
<path d="M 119.3733,94.5000 L 129.5978,94.5000" />
<path d="M 92.0935,47.2500 L 102.3180,47.2500" />
<path d="M 119.3733,0.0000 L 129.5978,0.0000" />
<path d="M 107.6820,114.7500 L 80.4022,162.0000" />
<path d="M 80.4022,162.0000 L 53.1224,114.7500" />
<path d="M 53.1224,114.7500 L 80.4022,67.5000" />
<path d="M 80.4022,67.5000 L 107.6820,114.7500" />
<path d="M 117.9065,114.7500 L 90.6267,162.0000" />
<path d="M 90.6267,162.0000 L 63.3469,114.7500" />
<path d="M 63.3469,114.7500 L 90.6267,67.5000" />
<path d="M 90.6267,67.5000 L 117.9065,114.7500" />
<path d="M 107.6820,114.7500 L 117.9065,114.7500" />
<path d="M 80.4022,162.0000 L 90.6267,162.0000" />
<path d="M 53.1224,114.7500 L 63.3469,114.7500" />
<path d="M 80.4022,67.5000 L 90.6267,67.5000" />
<path d="M 68.7109,182.2500 L 41.4311,229.5000" />
<path d="M 41.4311,229.5000 L 14.1513,182.2500" />
<path d="M 14.1513,182.2500 L 41.4311,135.0000" />
<path d="M 41.4311,135.0000 L 68.7109,182.2500" />
<path d="M 78.9353,182.2500 L 51.6555,229.5000" />
<path d="M 51.6555,229.5000 L 24.3757,182.2500" />
<path d="M 24.3757,182.2500 L 51.6555,135.0000" />
<path d="M 51.6555,135.0000 L 78.9353,182.2500" />
<path d="M 68.7109,182.2500 L 78.9353,182.2500" />
<path d="M 41.4311,229.5000 L 51.6555,229.5000" />
<path d="M 14.1513,182.2500 L 24.3757,182.2500" />
<path d="M 41.4311,135.0000 L 51.6555,135.0000" />
</g>
</svg>
